<svg width="50" height="50" viewBox="0 0 50 50" fill="none" xmlns="http://www.w3.org/2000/svg">
  <g clip-path="url(#clip0)">
    <path d="M10.6694 36.5047C10.6019 31.444 13.7757 27.3954 14.9912 25.2361C16.2067 23.0769 23.5672 16.4642 23.5672 16.4642L17.6923 20.9176L18.5026 20.0404L22.8244 15.3846L18.9753 17.4763L23.2295 13.9001C23.2295 13.9001 24.9852 12.1457 23.2295 11.6059C21.4738 11.0661 16.3417 13.0229 16.3417 13.0229C16.3417 13.0229 19.448 13.2253 18.0974 13.5627C16.7469 13.9001 3.71407 21.1875 1.55319 24.6288C-0.675216 28.0701 0.135115 34.5479 0.135115 34.5479C-0.27005 29.8245 4.79451 26.9905 4.79451 26.9905C4.79451 26.9905 3.64655 32.2537 4.45688 37.5843C5.26721 42.9149 15.8015 45.6815 15.8015 45.6815C15.8015 45.6815 10.7369 41.4979 10.6694 36.5047Z" fill="#272930"/>
    <path d="M27.4839 10.3239C28.2267 12.5506 28.2267 12.5506 28.2267 12.5506L29.7123 10.7287C29.7123 10.7287 28.8344 8.09717 27.889 8.09717C26.9437 8.09717 26.1333 8.77193 26.0658 9.10931C25.9983 9.10931 26.7411 8.16464 27.4839 10.3239Z" fill="#272930"/>
    <path d="M23.0945 29.2173C22.1491 28.5425 20.3934 28.2051 20.3258 27.3954C20.2583 26.7881 21.1362 26.2483 21.9465 25.911C22.1491 25.8435 23.0269 25.1012 23.0945 24.8313C23.162 24.1566 22.9594 23.3468 22.9594 23.3468C22.9594 23.3468 22.4867 22.1997 22.1491 21.525C21.8115 20.8502 22.9594 19.7031 22.9594 19.7031C6.48271 32.2537 12.02 40.9582 15.869 44.6019C16.2067 44.8718 17.5572 45.749 18.165 45.884C20.1233 46.2888 23.162 46.4912 23.162 46.4912H29.6446C29.6446 46.4912 29.9823 46.4238 29.9148 42.5776C29.8472 38.7315 26.4709 36.4373 26.4709 36.4373C26.4709 36.4373 21.4738 35.0203 25.9306 35.4926C30.3874 35.9649 31.5354 45.4791 31.5354 45.4791C31.5354 45.4791 32.1432 42.5101 30.0498 36.8421C28.024 31.0392 24.0399 29.8246 23.0945 29.2173Z" fill="#272930"/>
    <path d="M44.5682 31.1741C43.9604 31.444 43.2851 31.5789 42.6774 31.6464C42.4073 31.6464 42.1372 31.7139 41.8671 31.7139C40.8542 31.7813 39.4361 31.309 38.7608 30.8367C38.5582 30.7017 38.4232 30.6342 38.2206 30.4993C38.0855 30.4318 37.6128 29.9595 37.4778 29.8245C37.0726 29.0148 37.1401 27.8677 37.1401 27.8677L36.0597 26.6531L35.8571 26.5857C35.8571 26.5857 35.6545 26.6531 35.5195 26.7206C35.452 26.7881 35.3169 26.7881 35.2494 26.8556C33.021 27.5978 30.3874 25.7759 29.6446 24.6963C28.9018 23.6167 29.8472 21.3225 30.3874 20.4453C30.9276 19.5681 32.4132 19.9055 32.6158 18.9608C32.8184 18.0162 30.3874 16.3967 30.3874 16.3967C30.3874 16.3967 31.4678 18.0162 29.6446 19.0283C27.8214 20.0405 26.5383 22.0647 25.9306 23.7517C25.3228 25.4386 24.7151 26.6531 23.3645 26.9905C22.014 27.3279 22.3516 27.7328 25.9306 29.0148C29.5771 30.2969 32.6833 44.2645 32.8859 42.8475C33.156 41.4305 33.4937 36.8421 34.7092 37.5843C35.6545 38.1241 37.6128 43.1849 38.5582 45.8164C38.8959 46.6936 39.0309 48.1106 38.9634 48.8529C38.8283 50.4048 38.8283 51.8218 39.7062 45.8164C40.9892 36.977 35.9922 30.7692 35.9922 30.7692C35.9922 30.7692 35.5195 30.3643 36.4649 30.2294C37.4103 30.0944 38.8283 33.0634 41.2593 33.6707C43.6903 34.2105 46.4589 30.4318 44.5682 31.1741Z" fill="#272930"/>
    <path d="M10.5344 15.857C10.8045 15.722 11.1421 15.587 11.5473 15.4521C12.8978 14.9123 14.3159 14.4399 14.451 14.3725C16.2742 13.8327 14.5185 12.9555 14.5185 12.9555C14.5185 12.9555 16.8144 11.5385 19.313 11.0661C19.5155 10.9987 22.7569 10.5938 23.3646 10.5263C23.6347 10.5263 23.8373 10.5263 24.1074 10.5263C24.6476 10.5938 24.6476 9.78408 24.5801 9.24426C24.5126 8.97436 24.5801 8.43455 24.8502 8.02969C25.1879 7.48988 25.7956 6.88259 26.6059 6.88259C28.0915 6.81511 28.9019 7.28745 29.9823 8.83941C31.0627 10.3914 32.2107 10.7287 32.2107 10.7287V6.88259C32.2107 6.88259 32.0081 6.14035 32.6834 6.20783C33.3587 6.2753 34.5066 7.4224 34.5066 7.4224V5.39811C34.5066 5.39811 34.3041 3.84615 35.2495 4.58839C36.1948 5.33063 36.8701 10.7962 36.8701 10.7962V7.69231C36.8701 7.69231 37.0052 6.54521 37.0727 6.0054C37.2078 4.8583 36.9376 2.90148 34.034 2.15924C29.8473 1.07962 23.162 1.07962 19.9207 1.48448C17.6923 1.82186 15.2613 1.21457 13.9108 0.674764C13.6406 0.539811 13.3705 0.404858 13.168 0.269906C13.168 0.269906 13.1004 0.269906 13.1004 0.202429C12.7628 0.134953 12.6953 0 12.6953 0C12.6953 0 12.8978 0.404858 13.1004 0.74224C13.168 0.877193 13.3705 1.21457 13.4381 1.21457C13.5731 1.34953 13.8432 1.61943 13.8432 1.61943C14.5185 2.2942 15.4639 2.96896 15.4639 2.96896L17.5572 4.18354C17.5572 4.18354 14.9237 5.60054 13.2355 5.80297C11.5473 6.0054 11.5473 6.0054 11.5473 6.0054L16.8144 7.08502L18.165 6.95007C18.165 6.95007 18.3676 7.21997 17.017 7.69231C15.6665 8.23212 6.61779 7.69231 5.94251 7.69231C5.26724 7.69231 10.5344 10.2564 10.5344 10.2564C10.5344 10.2564 8.84619 11.2686 7.15801 12.3482C6.82037 12.5506 4.72702 13.8327 4.38938 14.305C3.78163 15.1822 4.05174 16.1269 4.1868 16.2618C4.59196 16.6667 4.9296 16.8691 4.9296 16.8691L1.55322 20.4453C1.55322 20.4453 6.75284 17.6113 10.5344 15.857Z" fill="#272930"/>
    <path d="M41.2592 25.2362C39.0984 24.5614 39.3685 24.1565 38.6257 24.0216C37.8153 23.8192 36.5999 24.5614 36.5999 25.3036C36.5999 26.0459 37.005 26.1134 37.005 26.1134H42.1371L41.9345 25.776C41.9345 25.776 41.7995 25.641 41.6644 25.5061C41.5969 25.3711 41.3268 25.2362 41.2592 25.2362Z" fill="#272930"/>
    <path d="M40.7192 20.4453C40.2466 19.8381 41.1919 18.1511 41.1919 18.1511C41.1919 18.1511 40.6517 17.8812 38.6259 19.7706C36.6676 21.6599 38.2207 23.2119 38.2207 23.2119C38.4233 24.0891 40.3141 24.0891 41.2595 24.0216C41.5971 24.0216 41.9347 23.9541 42.1373 23.8192C42.475 23.6842 42.9477 23.4818 42.5425 23.4818C41.9347 23.4818 40.1115 22.6046 40.1115 22.6046C40.1115 22.6046 40.1115 22.1997 40.7868 22.4696C41.4621 22.7395 43.4204 22.4696 43.4204 22.4696C43.4204 22.4696 43.4203 22.4696 42.9477 22.1997C42.5425 21.8623 41.1919 21.0526 40.7192 20.4453Z" fill="#272930"/>
    <path d="M47.4719 20.0405L46.1889 19.2307L45.9863 20.1079L44.2306 19.0283C44.2306 19.0283 44.2306 19.7706 44.8384 20.3778C45.2435 20.8502 45.041 22.1322 44.8384 22.807C44.7708 23.0769 44.6358 23.3468 44.5007 23.4818C44.028 23.8866 42.9476 24.8313 42.8125 25.3036C42.61 25.9784 42.4074 26.9905 43.2177 27.193C43.7579 27.3279 44.2981 26.9231 44.5683 26.7206C44.7033 26.5857 44.8384 25.9784 44.8384 25.9784L45.176 24.0891C45.176 24.0891 45.4461 22.8745 46.1889 22.3347C46.7967 21.9298 47.3369 21.1876 47.5395 20.8502C47.607 20.7827 47.607 20.5803 47.607 20.5803V20.2429L47.4719 20.0405Z" fill="#272930"/>
    <path d="M37.6803 13.6302C37.6803 13.6302 34.3039 14.3725 33.9663 14.5074H37.6803C37.6803 14.5074 37.5453 15.9244 39.0984 15.857C40.6515 15.7895 41.1917 14.8448 41.1917 14.8448C41.1917 14.8448 39.8412 12.4831 38.8958 12.5506C38.2205 12.6181 38.5582 12.8205 38.8283 12.888C38.9633 12.9555 39.0984 13.0229 39.1659 13.0904C39.436 13.3603 39.9763 14.1026 39.7737 14.3725C39.5036 14.7773 37.6803 13.6302 37.6803 13.6302Z" fill="#272930"/>
    <path d="M26.4708 13.5628C26.5383 12.6182 25.6605 12.9555 25.6605 12.9555C26.1332 13.4954 25.3904 14.7774 25.3904 14.7774C25.3904 14.7774 26.4033 14.575 26.4708 13.5628Z" fill="#272930"/>
  </g>
  <defs>
    <clipPath id="clip0">
      <rect width="47.6744" height="50" fill="white"/>
    </clipPath>
  </defs>
</svg>
